<?xml version="1.0" encoding="utf-8"?>
<!-- Generator: Adobe Illustrator 22.1.0, SVG Export Plug-In . SVG Version: 6.00 Build 0)  -->
<svg version="1.1" id="Calque_1" xmlns="http://www.w3.org/2000/svg" xmlns:xlink="http://www.w3.org/1999/xlink" x="0px" y="0px"
	 viewBox="0 0 303.3 65.2" style="enable-background:new 0 0 303.3 65.2;" xml:space="preserve">
<style type="text/css">
	.st0{fill:none;}
	.st1{fill:#074168;}
	.st2{fill:#F8B137;}
	.st3{fill:#E84E1C;}
	.st4{fill:#F29100;}
	.st5{fill:#88807F;}
</style>
<path class="st0" d="M143,61v3.1h6c1.2,0,1.9-0.5,1.9-1.5c0-1-0.7-1.6-1.9-1.6H143z"/>
<polygon class="st0" points="92,56.8 91.9,56.8 89.1,62 94.8,62 "/>
<polygon class="st0" points="233.9,57.2 233.9,57.2 231.3,61.8 236.4,61.8 "/>
<path class="st0" d="M136.3,57.1h-5.4v3.4h5.7c1.1,0,1.8-0.6,1.8-1.7C138.3,57.7,137.7,57.1,136.3,57.1z"/>
<path class="st0" d="M226.3,57.2H221v3.4h5.6c1.1,0,1.7-0.6,1.7-1.7C228.3,57.7,227.7,57.2,226.3,57.2z"/>
<path class="st0" d="M149.1,57.1H143v3h5.9c1,0,1.7-0.7,1.7-1.6C150.6,57.7,150,57.1,149.1,57.1z"/>
<polygon class="st0" points="121.5,61.9 119,57.1 118.9,57.1 116.4,61.9 "/>
<polygon class="st0" points="271.3,28 286.8,28 279.1,8.1 "/>
<path class="st0" d="M197.6,64.3c2.6,0,4.3-1.5,4.3-3.6c0-2.2-1.8-3.8-4.3-3.8c-2.6,0-4.3,1.6-4.3,3.8
	C193.3,62.8,195,64.3,197.6,64.3z"/>
<polygon class="st1" points="70.9,7 86.4,7 86.4,46.5 94.9,46.5 94.9,7 110.6,7 110.6,0 70.9,0 "/>
<path class="st1" d="M134.3,46.5h14.2v-7h-13.2c-9.1,0.1-13.4-3.9-13.8-12.8h27v-7h-27c0.3-9.3,4.4-13,13.8-12.7h13.2V0h-14.7
	c-6.8,0-11,1.2-14.3,4c-5.1,4.4-7.6,10.9-7.6,19.5c0,7.6,1.8,13.3,5.6,17.5C121,44.8,126,46.5,134.3,46.5z"/>
<path class="st1" d="M153,13.9c0,4.2,1.7,7.9,4.8,10.1c2.4,1.7,5.9,2.5,11.4,2.5h6c3.3,0,5,0.2,6.3,0.7c2.2,1,3.5,3.1,3.5,5.9
	c0,2.4-1,4.2-2.8,5.3c-1.3,0.8-3.2,1.1-6.8,1.1h-20.5v7h21c6.9,0,9.7-0.4,12.3-2c3.8-2.2,6.1-6.4,6.1-11.6c0-4.5-1.6-8.6-4.3-10.9
	c-2.6-2.2-6.2-3-13.4-3h-4.9c-6.8,0-9.3-1.7-9.3-5.9c0-2.4,1.1-4.5,2.9-5.3c1.5-0.6,3.3-0.9,6.9-0.9h19.8V0H171
	c-5.5,0-8.6,0.5-11.1,1.7C155.7,3.8,153,8.5,153,13.9z"/>
<polygon class="st1" points="212.3,46.5 220.8,46.5 220.8,7 236.5,7 236.5,0 196.8,0 196.8,7 212.3,7 "/>
<rect x="241.4" y="0" class="st1" width="8.5" height="46.5"/>
<path class="st1" d="M274,0l-19.2,46.5h9.5L269,35h20.1l4.6,11.5h9.6L284.5,0H274z M271.3,28l7.9-19.9l7.7,19.9H271.3z"/>
<polygon class="st2" points="27.4,46.1 22.4,54.9 70.9,55 40.8,0 30.7,0 56.1,46.1 "/>
<polygon class="st3" points="66.2,65.2 70.9,56 20.7,56 35.1,29.8 30.2,20.6 5.9,65.2 "/>
<polygon class="st4" points="54.4,45.1 29.8,0.6 0,55.5 0,55.5 5,64.7 30.2,18.6 44.6,45.1 "/>
<path class="st5" d="M95.2,62.8l1.3,2.4h1L92.6,56h-1.2l-4.9,9.2h1l1.3-2.4H95.2z M91.9,56.8H92l2.8,5.2h-5.7L91.9,56.8z"/>
<polygon class="st5" points="107.6,65.2 108.7,65.2 108.7,56 107.9,56 107.9,64.4 100.2,56 99,56 99,65.2 99.8,65.2 99.8,56.8 "/>
<path class="st5" d="M113.6,65h1.1l1.2-2.2h6.1l1.2,2.2h1.1l-4.7-8.8h-1.2L113.6,65z M119,57.1l2.6,4.7h-5.1L119,57.1L119,57.1z"/>
<rect x="125.8" y="56.2" class="st5" width="0.9" height="8.8"/>
<path class="st5" d="M139.4,58.9c0-1.6-1.1-2.6-2.7-2.6H130V65h0.9v-3.5h4.7l2.8,3.5h1.1l-2.7-3.6C138.5,61.3,139.4,60.3,139.4,58.9
	z M136.6,60.6h-5.7v-3.4h5.4c1.4,0,2,0.6,2,1.7C138.3,59.9,137.7,60.6,136.6,60.6z"/>
<path class="st5" d="M151.6,58.5c0-1.4-1-2.3-2.6-2.3h-6.9V65h7c1.8,0,2.8-0.9,2.8-2.4c0-1-0.5-1.7-1.6-2.2
	C151.2,60,151.6,59.4,151.6,58.5z M150.9,62.6c0,1-0.7,1.5-1.9,1.5h-6V61h6C150.2,61,150.9,61.6,150.9,62.6z M148.9,60.1H143v-3h6.1
	c0.9,0,1.5,0.6,1.5,1.4C150.6,59.4,149.9,60.1,148.9,60.1z"/>
<path class="st5" d="M154.5,56.2v5.9c0,1.7,1.8,3,4.7,3c2.9,0,4.7-1.3,4.7-3v-5.9H163v5.6c0,1.6-1.3,2.4-3.8,2.4
	c-2.5,0-3.8-0.8-3.8-2.4v-5.6H154.5z"/>
<path class="st5" d="M171.1,64.3c-1.7,0-3.1-0.4-4.4-1.2l-0.5,0.8c1.3,0.9,2.9,1.3,4.9,1.3c3,0,4.6-1.1,4.6-2.8
	c0-1.9-1.5-2.4-4.7-2.5c-2.4-0.1-3.6-0.3-3.6-1.5c0-1,1.1-1.5,3.2-1.5c1.4,0,2.6,0.3,3.8,0.9L175,57c-1.1-0.7-2.6-1-4.3-1
	c-2.8,0-4.3,1-4.3,2.6c0,1.8,1.5,2.1,4.7,2.2c2.4,0.1,3.6,0.4,3.6,1.7C174.6,63.6,173.4,64.3,171.1,64.3z"/>
<path class="st5" d="M185.8,56.9c1.6,0,2.9,0.5,3.8,1.5l0.8-0.3c-1-1.3-2.6-2-4.6-2c-1.4,0-2.7,0.5-3.7,1.2c-1.1,0.9-1.6,2-1.6,3.4
	c0,1.4,0.5,2.5,1.6,3.4c0.9,0.7,2.2,1.2,3.7,1.2c2.1,0,3.6-0.6,4.5-1.8l-0.8-0.5c-0.9,1-2.1,1.4-3.8,1.4c-2.6,0-4.3-1.6-4.3-3.6
	C181.5,58.5,183.3,56.9,185.8,56.9z"/>
<path class="st5" d="M192.3,60.6c0,1.4,0.5,2.5,1.6,3.4c0.9,0.7,2.2,1.2,3.7,1.2c1.5,0,2.8-0.4,3.7-1.2c1.1-0.9,1.6-2,1.6-3.4
	c0-1.4-0.6-2.5-1.6-3.4c-0.9-0.8-2.2-1.2-3.7-1.2c-1.4,0-2.7,0.5-3.7,1.2C192.9,58.1,192.3,59.2,192.3,60.6z M197.6,56.9
	c2.6,0,4.3,1.6,4.3,3.8c0,2.1-1.7,3.6-4.3,3.6c-2.6,0-4.3-1.5-4.3-3.6C193.3,58.5,195.1,56.9,197.6,56.9z"/>
<polygon class="st5" points="216.9,64.9 216.9,56.3 215.6,56.3 211.2,61.9 206.8,56.3 205.5,56.3 205.5,64.9 206.4,64.9 206.4,57.2 
	206.4,57.2 211.2,63.3 215.9,57.2 216,57.2 216,64.9 "/>
<path class="st5" d="M226.6,56.3H220v8.7h0.9v-3.5h5.5c1.8,0,2.9-1,2.9-2.6C229.3,57.3,228.3,56.3,226.6,56.3z M226.6,60.6H221v-3.4
	h5.4c1.4,0,2,0.5,2,1.7C228.3,59.9,227.7,60.6,226.6,60.6z"/>
<path class="st5" d="M230.9,62.7h6l1.2,2.2h1.1l-4.6-8.7h-1.2l-4.7,8.7h1.1L230.9,62.7z M233.9,57.2L233.9,57.2l2.6,4.7h-5.1
	L233.9,57.2z"/>
<polygon class="st5" points="241.6,57.2 248.9,64.9 250,64.9 250,56.3 249.1,56.3 249.1,64.1 241.8,56.3 240.7,56.3 240.7,64.9 
	241.6,64.9 "/>
<polygon class="st5" points="255.9,60.6 252.2,56.3 251.1,56.3 255.5,61.5 255.5,64.9 256.4,64.9 256.4,61.5 260.8,56.3 259.6,56.3 
	"/>
</svg>
